#!OML:ASF X:\für Bonn\!DataBase\2005_08_12_Daniel\c3d\Daniel.ASF
:FULLY-SPECIFIED
:DEGREES
80
root 2.76376 17.6259 17.5733 -5.42991 12.8763 0.783506
lowerback 5.70507 1.37301 2.34774
upperback 1.02364 1.86473 -5.62422
thorax -1.87744 0.921253 -7.33593
lowerneck 1.56778 -4.35871 -0.440434
upperneck 10.4454 -6.12249 3.448
head 3.21704 -2.937 1.04872
rclavicle -3.30107e-014 -9.54166e-015
rhumerus 43.7508 -0.933968 -60.9895
rradius 43.7836
rwrist 8.9187
rhand -19.6397 11.9782
rfingers 7.12502
rthumb 6.68768 -17.8962
lclavicle -3.30107e-014 -9.54166e-015
lhumerus -37.0781 43.2462 58.2022
lradius 16.8675
lwrist -43.422
lhand -10.8573 -5.91808
lfingers 7.12502
lthumb 15.158 23.5068
rfemur 6.49987 16.871 20.7151
rtibia 18.2321
rfoot -26.5076 -25.1758
rtoes -11.4456
lfemur 0.0173222 -18.3708 -20.6174
ltibia 27.2777
lfoot -21.4747 6.86119
ltoes -14.9359
81
root 2.76012 17.6261 17.5723 -5.44764 12.9152 0.77155
lowerback 5.74224 1.43342 2.41637
upperback 1.01781 1.949 -5.66755
thorax -1.88822 0.963052 -7.42957
lowerneck 1.52493 -4.41824 -0.411694
upperneck 10.5029 -6.20844 3.48606
head 3.24756 -2.97588 1.05261
rclavicle 3.35449e-016 4.77083e-015
rhumerus 44.8556 -0.992974 -60.6246
rradius 41.8657
rwrist 9.20842
rhand -19.1694 12.0586
rfingers 7.12502
rthumb 7.14159 -17.8009
lclavicle 3.35449e-016 4.77083e-015
lhumerus -36.9941 43.3436 58.1399
lradius 16.8096
lwrist -43.6182
lhand -10.8757 -5.93937
lfingers 7.12502
lthumb 15.1402 23.4868
rfemur 6.49869 16.8097 20.7304
rtibia 18.2481
rfoot -26.4881 -25.1614
rtoes -11.4471
lfemur 0.0116699 -18.3734 -20.5929
ltibia 27.2896
lfoot -21.4644 6.83353
ltoes -14.9858
82
root 2.75617 17.6259 17.5716 -5.45468 12.9517 0.771254
lowerback 5.77316 1.49546 2.48139
upperback 1.0064 2.03492 -5.7245
thorax -1.90034 1.00556 -7.53592
lowerneck 1.51104 -4.48506 -0.390103
upperneck 10.5337 -6.30422 3.5383
head 3.26471 -3.02015 1.06286
rclavicle 5.74363e-014 -8.26944e-014
rhumerus 45.9849 -1.11557 -60.4593
rradius 39.8364
rwrist 9.69072
rhand -18.7263 12.1606
rfingers 7.12502
rthumb 7.56938 -17.684
lclavicle 5.74363e-014 -8.26944e-014
lhumerus -36.9004 43.3471 58.1078
lradius 16.7878
lwrist -43.7585
lhand -10.8722 -5.97111
lfingers 7.12502
lthumb 15.1436 23.4548
rfemur 6.50703 16.8027 20.7473
rtibia 18.2542
rfoot -26.5126 -25.1741
rtoes -11.3466
lfemur -0.00764845 -18.3449 -20.5685
ltibia 27.3062
lfoot -21.4545 6.77822
ltoes -15.0385
83
root 2.75236 17.626 17.5702 -5.45422 12.997 0.771721
lowerback 5.80756 1.5562 2.53162
upperback 0.9925 2.11826 -5.77219
thorax -1.91791 1.04661 -7.62388
lowerneck 1.49807 -4.55114 -0.331568
upperneck 10.5603 -6.39546 3.5471
head 3.27675 -3.06223 1.05279
rclavicle 1.00759e-014 -6.36111e-015
rhumerus 47.0363 -1.19759 -60.2041
rradius 37.9067
rwrist 10.0877
rhand -18.2931 12.2036
rfingers 7.12502
rthumb 7.9875 -17.6255
lclavicle 1.00759e-014 -6.36111e-015
lhumerus -36.795 43.3733 58.0899
lradius 16.7387
lwrist -43.8827
lhand -10.8582 -6.00677
lfingers 7.12502
lthumb 15.1571 23.4181
rfemur 6.49399 16.7313 20.7437
rtibia 18.2644
rfoot -26.4985 -25.1556
rtoes -11.3636
lfemur -0.0401763 -18.3056 -20.5429
ltibia 27.3205
lfoot -21.4315 6.72022
ltoes -15.1411
84
root 2.74885 17.6263 17.5692 -5.46259 13.0365 0.771187
lowerback 5.8383 1.62022 2.59991
upperback 0.986028 2.20731 -5.83178
thorax -1.92337 1.091 -7.73532
lowerneck 1.47595 -4.61842 -0.267171
upperneck 10.5975 -6.49031 3.57106
head 3.29465 -3.10506 1.04624
rclavicle 3.07495e-014 2.70347e-014
rhumerus 48.0388 -1.2852 -59.9433
rradius 36.0337
rwrist 10.462
rhand -17.7826 12.2129
rfingers 7.12502
rthumb 8.48009 -17.5969
lclavicle 3.07495e-014 2.70347e-014
lhumerus -36.6935 43.4273 58.0428
lradius 16.7034
lwrist -44.0828
lhand -10.8242 -6.00781
lfingers 7.12502
lthumb 15.1898 23.4146
rfemur 6.49006 16.6884 20.746
rtibia 18.2768
rfoot -26.4957 -25.141
rtoes -11.355
lfemur -0.0547406 -18.3099 -20.5288
ltibia 27.334
lfoot -21.4212 6.6949
ltoes -15.1907
85
root 2.74503 17.6262 17.5682 -5.46788 13.0814 0.771647
lowerback 5.87295 1.67307 2.64333
upperback 0.970906 2.27977 -5.87395
thorax -1.94389 1.12646 -7.81295
lowerneck 1.47245 -4.67866 -0.242508
upperneck 10.6379 -6.57578 3.60306
head 3.31194 -3.14464 1.04976
rclavicle 5.32991e-014 -1.90833e-014
rhumerus 49.0065 -1.36303 -59.7737
rradius 34.2234
rwrist 10.8974
rhand -17.2119 12.1786
rfingers 7.12502
rthumb 9.03087 -17.608
lclavicle 5.32991e-014 -1.90833e-014
lhumerus -36.5764 43.3662 58.071
lradius 16.6651
lwrist -44.1409
lhand -10.8217 -6.03535
lfingers 7.12502
lthumb 15.1922 23.3869
rfemur 6.48529 16.6204 20.7426
rtibia 18.2903
rfoot -26.4936 -25.1074
rtoes -11.2579
lfemur -0.0764797 -18.2869 -20.5057
ltibia 27.3469
lfoot -21.4067 6.63748
ltoes -15.2433
